<svg xmlns="http://www.w3.org/2000/svg" width="142" height="265.355" viewBox="0 0 142 265.355">
  <g id="logo-svg" data-name="Group 1" transform="translate(-113 -406)">
    <g id="Rectangle_2" data-name="Rectangle 2" transform="translate(139 406)" fill="#fff" stroke="#000" stroke-miterlimit="10" stroke-width="5">
      <rect width="89.977" height="202.785" rx="31.99" stroke="none"/>
      <rect x="2.5" y="2.5" width="84.977" height="197.785" rx="29.49" fill="none"/>
    </g>
    <g id="Ellipse_2" data-name="Ellipse 2" transform="translate(159.811 423.807)" fill="#ff5f68" stroke="#000" stroke-miterlimit="10" stroke-width="5">
      <circle cx="24.178" cy="24.178" r="24.178" stroke="none"/>
      <circle cx="24.178" cy="24.178" r="21.678" fill="none"/>
    </g>
    <path id="Path_1" data-name="Path 1" d="M196.226,67.276A32.487,32.487,0,0,1,256.613,65.9" transform="translate(-43.003 371.396)" fill="none" stroke="#000" stroke-linecap="round" stroke-miterlimit="10" stroke-width="6"/>
    <g id="Ellipse_2-2" data-name="Ellipse 2" transform="translate(159.811 485.807)" fill="#f2d589" stroke="#000" stroke-miterlimit="10" stroke-width="5">
      <circle cx="24.178" cy="24.178" r="24.178" stroke="none"/>
      <circle cx="24.178" cy="24.178" r="21.678" fill="none"/>
    </g>
    <path id="Path_2" data-name="Path 2" d="M196.226,176.654a32.487,32.487,0,0,1,60.387-1.373" transform="translate(-43.003 324.596)" fill="none" stroke="#000" stroke-linecap="round" stroke-miterlimit="10" stroke-width="6"/>
    <g id="Ellipse_4" data-name="Ellipse 4" transform="translate(159.811 548.963)" fill="#00a99d" stroke="#000" stroke-miterlimit="10" stroke-width="5">
      <circle cx="24.178" cy="24.178" r="24.178" stroke="none"/>
      <circle cx="24.178" cy="24.178" r="21.678" fill="none"/>
    </g>
    <path id="Path_3" data-name="Path 3" d="M196.226,286.033a32.487,32.487,0,0,1,60.387-1.373" transform="translate(-43.003 277.795)" fill="none" stroke="#000" stroke-linecap="round" stroke-miterlimit="10" stroke-width="6"/>
    <text id="SIGNALOG" transform="translate(113 661.355)" font-size="50" font-family="Atrament-Italic, Atrament" font-style="italic" fill="#000"><tspan x="0" y="0">SIGNALOG</tspan></text>
  </g>
</svg>
