<svg xmlns="http://www.w3.org/2000/svg" width="142" height="265.355" viewBox="0 0 142 265.355">
  <g id="Group_8" data-name="Group 8" transform="translate(-571 -36)">
    <g id="Group_5" data-name="Group 5">
      <g id="Group_4" data-name="Group 4">
        <g id="Rectangle_2" data-name="Rectangle 2" transform="translate(597 36)" fill="#fff" stroke="#000" stroke-miterlimit="10" stroke-width="5">
          <rect width="89.977" height="202.785" rx="31.99" stroke="none"/>
          <rect x="2.5" y="2.5" width="84.977" height="197.785" rx="29.49" fill="none"/>
        </g>
        <g id="Ellipse_2" data-name="Ellipse 2" transform="translate(617.811 53.807)" fill="#ff5f68" stroke="#000" stroke-miterlimit="10" stroke-width="5">
          <circle cx="24.178" cy="24.178" r="24.178" stroke="none"/>
          <circle cx="24.178" cy="24.178" r="21.678" fill="none"/>
        </g>
        <path id="Path_1" data-name="Path 1" d="M196.226,67.276A32.487,32.487,0,0,1,256.613,65.9" transform="translate(414.997 1.396)" fill="none" stroke="#000" stroke-linecap="round" stroke-miterlimit="10" stroke-width="6"/>
        <g id="Path_7" data-name="Path 7" transform="translate(617.811 116.385)" fill="#f2d589">
          <path d="M 24.17806243896484 45.85612106323242 C 21.25044250488281 45.85612106323242 18.41172218322754 45.28330230712891 15.74075222015381 44.15358352661133 C 13.15964221954346 43.06186294555664 10.84104251861572 41.49845123291016 8.849362373352051 39.50677108764648 C 6.857682228088379 37.51508331298828 5.294262409210205 35.19648361206055 4.202542304992676 32.61537170410156 C 3.072822332382202 29.94440269470215 2.500002384185791 27.10568237304688 2.500002384185791 24.17806243896484 C 2.500002384185791 21.25044250488281 3.072822332382202 18.41172218322754 4.202542304992676 15.74075222015381 C 5.294262409210205 13.15964221954346 6.857682228088379 10.84104251861572 8.849362373352051 8.849362373352051 C 10.84104251861572 6.857682228088379 13.15964221954346 5.294262409210205 15.74075222015381 4.202542304992676 C 18.41172218322754 3.072822332382202 21.25044250488281 2.500002384185791 24.17806243896484 2.500002384185791 C 27.10568237304688 2.500002384185791 29.94440269470215 3.072822332382202 32.61537170410156 4.202542304992676 C 35.19648361206055 5.294262409210205 37.51508331298828 6.857682228088379 39.50677108764648 8.849362373352051 C 41.49845123291016 10.84104251861572 43.06186294555664 13.15964221954346 44.15358352661133 15.74075222015381 C 45.28330230712891 18.41172218322754 45.85612106323242 21.25044250488281 45.85612106323242 24.17806243896484 C 45.85612106323242 27.10568237304688 45.28330230712891 29.94441223144531 44.15358352661133 32.61538314819336 C 43.06186294555664 35.19649124145508 41.49845123291016 37.51508331298828 39.50677108764648 39.50677108764648 C 37.51508331298828 41.49845123291016 35.19649124145508 43.06186294555664 32.61538314819336 44.15358352661133 C 29.94441223144531 45.28330230712891 27.10568237304688 45.85612106323242 24.17806243896484 45.85612106323242 Z" stroke="none"/>
          <path d="M 24.17806243896484 4.999996185302734 C 19.05541801452637 4.999996185302734 14.23938369750977 6.994861602783203 10.61711883544922 10.61711883544922 C 6.994861602783203 14.23938369750977 4.999996185302734 19.05541801452637 4.999996185302734 24.17806243896484 C 4.999996185302734 29.30070686340332 6.994861602783203 34.11674118041992 10.61711883544922 37.73899459838867 C 14.23937225341797 41.36125183105469 19.05541801452637 43.35611724853516 24.17806243896484 43.35611724853516 C 29.30070686340332 43.35611724853516 34.11674118041992 41.36125183105469 37.73899459838867 37.73899459838867 C 41.36125183105469 34.11674118041992 43.35611724853516 29.30070686340332 43.35611724853516 24.17806243896484 C 43.35611724853516 19.05541801452637 41.36125183105469 14.23937225341797 37.73899459838867 10.61711883544922 C 34.11674118041992 6.994861602783203 29.30070686340332 4.999996185302734 24.17806243896484 4.999996185302734 M 24.17806243896484 -3.814697265625e-06 C 37.53124237060547 -3.814697265625e-06 48.35611724853516 10.82488632202148 48.35611724853516 24.17806243896484 C 48.35611724853516 37.53124237060547 37.53124237060547 48.35611724853516 24.17806243896484 48.35611724853516 C 10.82488632202148 48.35611724853516 -3.814697265625e-06 37.53124237060547 -3.814697265625e-06 24.17806243896484 C -3.814697265625e-06 10.82488632202148 10.82488632202148 -3.814697265625e-06 24.17806243896484 -3.814697265625e-06 Z" stroke="none"/>
        </g>
        <path id="Path_2" data-name="Path 2" d="M196.226,176.654a32.487,32.487,0,0,1,60.387-1.373" transform="translate(414.997 -45.404)" fill="none" stroke="#000" stroke-linecap="round" stroke-miterlimit="10" stroke-width="6"/>
        <g id="Ellipse_4" data-name="Ellipse 4" transform="translate(617.811 178.963)" fill="#00a99d" stroke="#000" stroke-miterlimit="10" stroke-width="5">
          <circle cx="24.178" cy="24.178" r="24.178" stroke="none"/>
          <circle cx="24.178" cy="24.178" r="21.678" fill="none"/>
        </g>
        <path id="Path_3" data-name="Path 3" d="M196.226,286.033a32.487,32.487,0,0,1,60.387-1.373" transform="translate(414.997 -92.205)" fill="none" stroke="#000" stroke-linecap="round" stroke-miterlimit="10" stroke-width="6"/>
        <text id="SIGNALOG" transform="translate(571 291.355)" font-size="50" font-family="Atrament-Italic, Atrament" font-style="italic"><tspan x="0" y="0">SIGNALOG</tspan></text>
      </g>
    </g>
  </g>
</svg>
