<svg xmlns="http://www.w3.org/2000/svg" width="142" height="265.355" viewBox="0 0 142 265.355">
  <g id="Group_7" data-name="Group 7" transform="translate(-571 -36)">
    <g id="Group_6" data-name="Group 6">
      <g id="Rectangle_2" data-name="Rectangle 2" transform="translate(597 36)" fill="#fff" stroke="#000" stroke-miterlimit="10" stroke-width="5">
        <rect width="89.977" height="202.785" rx="31.99" stroke="none"/>
        <rect x="2.5" y="2.5" width="84.977" height="197.785" rx="29.49" fill="none"/>
      </g>
      <g id="Ellipse_2" data-name="Ellipse 2" transform="translate(617.811 53.807)" fill="none" stroke="#000" stroke-miterlimit="10" stroke-width="5">
        <circle cx="24.178" cy="24.178" r="24.178" stroke="none"/>
        <circle cx="24.178" cy="24.178" r="21.678" fill="none"/>
      </g>
      <path id="Path_1" data-name="Path 1" d="M196.226,67.276A32.487,32.487,0,0,1,256.613,65.9" transform="translate(414.997 1.396)" fill="none" stroke="#000" stroke-linecap="round" stroke-miterlimit="10" stroke-width="6"/>
      <g id="Ellipse_3" data-name="Ellipse 3" transform="translate(617.811 116.385)" fill="none" stroke="#000" stroke-miterlimit="10" stroke-width="5">
        <circle cx="24.178" cy="24.178" r="24.178" stroke="none"/>
        <circle cx="24.178" cy="24.178" r="21.678" fill="none"/>
      </g>
      <path id="Path_2" data-name="Path 2" d="M196.226,176.654a32.487,32.487,0,0,1,60.387-1.373" transform="translate(414.997 -45.404)" fill="none" stroke="#000" stroke-linecap="round" stroke-miterlimit="10" stroke-width="6"/>
      <g id="Ellipse_4" data-name="Ellipse 4" transform="translate(617.811 178.963)" fill="#00a99d" stroke="#000" stroke-miterlimit="10" stroke-width="5">
        <circle cx="24.178" cy="24.178" r="24.178" stroke="none"/>
        <circle cx="24.178" cy="24.178" r="21.678" fill="none"/>
      </g>
      <path id="Path_3" data-name="Path 3" d="M196.226,286.033a32.487,32.487,0,0,1,60.387-1.373" transform="translate(414.997 -92.205)" fill="none" stroke="#000" stroke-linecap="round" stroke-miterlimit="10" stroke-width="6"/>
      <text id="SIGNALOG" transform="translate(571 291.355)" font-size="50" font-family="Atrament-Italic, Atrament" font-style="italic"><tspan x="0" y="0">SIGNALOG</tspan></text>
    </g>
  </g>
</svg>
